<?xml version="1.0" standalone="no"?>
<!DOCTYPE svg PUBLIC "-//W3C//DTD SVG 20010904//EN"
 "http://www.w3.org/TR/2001/REC-SVG-20010904/DTD/svg10.dtd">
<svg version="1.0" xmlns="http://www.w3.org/2000/svg"
 width="1234.000000pt" height="1280.000000pt" viewBox="0 0 1234.000000 1280.000000"
 preserveAspectRatio="xMidYMid meet">
<metadata>
Created by potrace 1.15, written by Peter Selinger 2001-2017
</metadata>
<g transform="translate(0.000000,1280.000000) scale(0.100000,-0.100000)"
fill="#000000" stroke="none">
<path d="M5465 12143 c-279 -18 -636 -74 -900 -140 -323 -81 -555 -165 -835
-304 -628 -312 -1087 -766 -1385 -1368 -183 -369 -293 -767 -352 -1276 -22
-188 -25 -913 -5 -1150 79 -939 285 -1560 689 -2080 138 -178 316 -354 673
-667 431 -377 595 -570 741 -871 136 -282 205 -597 225 -1019 l7 -148 838 0
839 0 -2 4513 -3 4512 -240 1 c-132 0 -262 -1 -290 -3z"/>
<path d="M6644 12097 c-27 -12 -62 -30 -77 -40 -14 -9 -30 -17 -33 -17 -4 0
-45 -25 -90 -55 -74 -50 -85 -62 -119 -128 l-38 -72 -1 -185 -1 -185 38 -85
38 -86 -31 -49 c-55 -87 -101 -168 -141 -245 -35 -68 -39 -82 -39 -153 0 -97
13 -130 89 -217 33 -38 65 -78 73 -88 7 -10 21 -23 32 -29 17 -9 14 -13 -23
-39 -54 -38 -90 -110 -91 -184 -3 -91 -3 -91 40 -107 22 -9 40 -19 40 -22 0
-25 -33 -168 -51 -221 -21 -60 -23 -88 -26 -343 -4 -263 -3 -282 17 -348 12
-38 33 -89 45 -112 33 -59 143 -187 160 -187 21 0 19 -17 -6 -52 -20 -28 -58
-117 -99 -234 -10 -28 -27 -69 -38 -91 -12 -22 -33 -82 -49 -134 l-27 -94 -4
-452 -4 -451 43 -77 c23 -43 59 -95 79 -116 l36 -38 -38 -43 c-21 -24 -38 -49
-38 -56 0 -7 -10 -29 -23 -50 -68 -111 -99 -268 -71 -362 8 -25 31 -67 52 -95
l38 -50 -14 -45 c-8 -25 -24 -65 -35 -90 -27 -62 -47 -130 -47 -161 0 -15 -11
-55 -24 -90 -22 -59 -24 -85 -31 -321 -5 -188 -4 -271 5 -310 12 -56 55 -169
97 -255 l25 -52 -66 -125 -66 -125 -6 -108 c-3 -59 -2 -133 4 -163 13 -73 42
-183 52 -195 10 -12 27 -103 49 -261 l17 -122 -21 -25 c-19 -21 -24 -46 -35
-179 -14 -171 -13 -181 43 -298 19 -40 51 -84 83 -115 64 -62 194 -129 234
-122 22 5 31 0 49 -24 12 -16 54 -45 94 -65 l71 -36 191 -2 c187 -1 191 0 255
28 36 15 84 34 108 41 148 48 372 188 372 232 0 9 55 70 123 135 l122 119 60
-7 c33 -3 83 -12 110 -19 114 -32 351 -44 446 -24 43 9 201 78 249 108 8 6 28
13 44 16 45 9 134 101 172 177 19 37 34 74 34 81 0 8 14 41 32 73 33 61 44
104 57 214 11 92 23 117 63 125 18 4 80 23 138 43 104 36 106 37 193 125 57
58 106 121 139 176 28 47 61 99 74 114 13 15 40 62 60 105 20 42 40 84 45 92
29 49 33 72 31 204 -1 76 -6 153 -11 170 -6 17 -15 67 -20 110 -6 54 -16 88
-31 109 -18 23 -20 34 -12 51 42 89 54 199 32 291 l-10 40 124 120 c226 220
244 248 287 455 17 85 -2 234 -41 314 -11 23 -27 65 -35 93 -9 31 -38 80 -71
123 l-55 72 22 24 c12 13 30 24 39 24 19 0 90 53 103 76 5 8 15 40 23 72 19
71 6 214 -25 282 -11 25 -21 59 -21 75 0 69 -158 314 -213 331 -19 6 -20 13
-13 143 5 119 4 143 -14 196 -40 122 -51 147 -91 198 -39 50 -50 60 -115 101
-30 19 -30 20 -18 55 7 20 13 48 14 63 0 15 5 39 11 55 28 71 38 147 40 318 2
206 -11 302 -50 365 -5 8 -21 40 -35 70 -38 83 -99 172 -142 208 -22 18 -72
61 -113 95 -40 34 -86 71 -101 82 -15 11 -27 22 -27 25 0 3 -9 23 -21 46 -26
51 -49 174 -60 329 -7 90 -16 135 -35 180 -13 33 -28 74 -31 91 -10 45 -47 91
-106 131 -47 31 -58 34 -157 41 l-107 7 -19 33 c-19 32 -19 35 -2 85 11 33 19
98 22 180 6 125 5 128 -21 167 -14 22 -26 43 -26 46 0 4 -21 32 -47 63 -27 31
-55 65 -63 76 -8 10 -46 52 -83 91 -52 55 -86 81 -144 108 -73 35 -83 37 -209
43 -111 5 -138 3 -167 -10 -19 -10 -48 -17 -64 -17 -15 0 -44 -11 -63 -24 -19
-12 -53 -26 -75 -30 -21 -4 -58 -22 -82 -39 l-43 -30 -27 24 c-14 13 -45 42
-67 65 -68 68 -313 163 -433 169 -33 1 -51 9 -76 32 -56 55 -123 73 -287 78
-134 4 -149 3 -196 -18z m274 -63 c123 -25 174 -61 235 -170 40 -71 64 -160
72 -264 5 -68 8 -77 35 -100 23 -19 30 -33 30 -60 0 -56 -38 -111 -94 -139
l-48 -24 -68 17 c-66 17 -69 17 -94 0 -14 -11 -24 -23 -23 -28 4 -13 169 -45
237 -45 77 -1 118 13 168 56 l43 38 5 100 c7 117 -8 158 -68 188 -31 15 -37
24 -43 65 -9 66 -62 222 -82 245 -18 20 -17 20 27 13 104 -16 261 -90 324
-152 92 -92 116 -127 141 -211 23 -73 24 -89 15 -140 -6 -32 -15 -101 -20
-153 -4 -52 -12 -119 -16 -147 -7 -58 -5 -61 56 -65 l35 -3 6 140 c3 77 10
173 14 213 l8 72 86 -6 c81 -5 88 -4 119 19 31 23 32 26 15 35 -10 5 -64 13
-120 17 -93 6 -103 9 -103 26 0 11 -9 38 -20 60 l-21 39 25 10 c13 5 28 15 33
23 8 14 78 47 193 90 128 49 281 43 391 -15 108 -56 251 -234 313 -392 23 -55
21 -154 -4 -207 -11 -24 -20 -58 -20 -75 0 -16 -6 -38 -13 -48 -13 -17 -15
-17 -49 6 -20 14 -51 30 -69 37 -39 15 -64 26 -99 45 -86 47 -201 78 -238 65
-36 -14 -27 -45 18 -63 22 -9 48 -16 58 -16 9 0 42 -13 72 -30 30 -16 62 -29
70 -30 8 0 27 -11 42 -24 20 -20 26 -33 24 -63 -1 -21 4 -58 12 -82 12 -34 22
-46 50 -58 33 -14 37 -13 64 7 16 12 31 20 33 18 29 -34 55 -148 55 -247 0
-77 8 -94 41 -89 24 3 24 5 27 123 3 117 -3 161 -34 233 -8 18 -14 38 -14 44
0 15 103 3 200 -23 109 -29 145 -66 189 -196 31 -90 35 -112 41 -258 3 -88 3
-168 -2 -177 -5 -10 -19 -18 -31 -18 -36 0 -54 -21 -60 -67 -3 -23 -14 -54
-26 -69 -27 -34 -28 -64 -2 -64 46 0 128 25 152 47 44 41 64 32 192 -88 37
-34 80 -72 96 -83 97 -72 191 -261 221 -445 20 -123 -3 -367 -47 -481 -13 -36
-31 -84 -39 -106 -19 -57 -90 -162 -114 -169 -29 -9 -43 -40 -30 -65 6 -11 16
-20 23 -20 21 0 98 56 129 94 35 43 56 41 101 -5 15 -16 32 -29 37 -29 13 0
60 -90 80 -155 29 -94 34 -170 16 -257 -23 -110 -40 -143 -103 -206 -63 -63
-63 -63 -88 40 -30 119 -95 243 -174 331 -49 55 -80 68 -125 56 -20 -5 -36
-12 -36 -14 0 -3 33 -37 73 -77 40 -40 87 -98 104 -128 42 -76 81 -194 93
-283 14 -96 -4 -178 -61 -289 -35 -67 -55 -91 -130 -155 -93 -79 -107 -105
-65 -124 18 -8 30 -7 54 5 17 9 37 16 45 16 14 0 91 85 122 135 10 17 29 41
41 55 34 39 84 166 84 216 0 37 3 44 20 44 24 0 126 97 165 158 15 23 29 42
32 42 2 0 24 -19 49 -42 51 -47 97 -110 109 -148 4 -14 20 -55 36 -91 58 -135
61 -223 7 -304 -70 -106 -157 -166 -337 -235 -82 -32 -84 -32 -180 -23 -127
13 -141 7 -157 -69 -8 -42 -30 -87 -90 -179 -134 -207 -202 -260 -402 -310
-155 -39 -174 -47 -170 -73 3 -19 10 -21 92 -24 104 -3 171 13 265 65 89 50
139 99 227 222 41 58 112 148 156 199 l81 92 72 0 c64 0 190 32 295 74 25 10
124 -153 155 -254 28 -92 49 -247 39 -295 -12 -63 -48 -161 -78 -211 -66 -109
-196 -225 -285 -255 -82 -28 -86 -34 -71 -116 7 -38 15 -72 19 -78 22 -36 0
-166 -38 -228 -63 -101 -160 -147 -313 -147 -40 0 -79 -4 -86 -8 -22 -14 39
-49 99 -56 71 -9 215 9 280 34 27 11 51 20 53 20 8 0 37 -81 51 -140 20 -90
19 -173 -6 -277 -22 -96 -49 -153 -142 -313 -137 -232 -297 -335 -556 -356
-106 -9 -273 11 -338 41 -92 41 -192 113 -280 200 -47 47 -91 85 -98 85 -6 0
-19 -6 -29 -13 -15 -11 -16 -16 -2 -47 8 -19 45 -64 83 -99 37 -35 95 -90 128
-121 33 -32 70 -60 81 -64 51 -16 32 -133 -32 -198 -60 -63 -124 -88 -223 -89
-107 -1 -188 -12 -204 -28 -20 -20 6 -45 74 -68 146 -49 321 -10 420 94 62 65
82 115 77 192 -3 70 -2 70 78 46 30 -9 90 -15 157 -15 60 0 106 -4 103 -9 -3
-4 -13 -51 -22 -102 -21 -124 -43 -186 -101 -289 -85 -152 -126 -189 -273
-249 -157 -64 -258 -79 -411 -62 -246 28 -483 114 -569 206 -20 21 -21 25 -6
25 19 0 101 43 129 68 47 42 105 142 121 208 10 38 26 101 37 139 l21 70 109
-3 110 -4 44 48 c56 61 49 74 -33 60 -103 -17 -262 26 -332 88 -58 53 -118 88
-139 81 -42 -13 -33 -64 25 -141 13 -17 24 -34 24 -37 0 -4 14 -28 30 -54 30
-46 30 -49 24 -143 -10 -146 -41 -194 -175 -270 l-91 -53 -51 49 c-28 27 -52
49 -54 49 -3 0 25 110 36 138 14 36 14 125 0 166 -23 64 -41 35 -79 -123 -55
-229 -110 -297 -306 -382 -125 -53 -147 -71 -124 -99 20 -24 125 -13 188 19
26 13 65 32 86 42 22 10 63 42 93 72 l53 54 42 -27 c24 -15 66 -41 95 -58 28
-18 88 -60 133 -95 44 -35 95 -68 113 -74 49 -17 51 -23 10 -50 -21 -14 -103
-90 -183 -168 -184 -180 -263 -222 -506 -274 -95 -20 -124 -23 -195 -15 -127
13 -232 54 -287 112 -12 13 -33 50 -45 83 -13 33 -29 59 -37 59 -21 0 -40 -44
-40 -93 0 -49 2 -49 -65 -2 -84 60 -152 135 -177 198 -32 80 -32 260 -1 342
14 35 22 79 22 119 0 35 3 66 5 68 2 3 31 -15 63 -39 90 -67 142 -98 164 -98
10 0 42 -12 69 -26 54 -28 83 -28 88 -1 6 29 -23 53 -151 124 -79 44 -143 88
-187 130 -37 34 -72 63 -77 63 -6 0 -13 20 -16 45 -4 25 -10 57 -13 71 l-7 26
43 -22 c79 -41 224 -70 345 -70 161 0 320 23 386 57 77 39 210 175 234 238 11
28 27 64 37 80 10 17 18 45 18 64 0 27 3 32 18 26 35 -14 159 -18 194 -6 48
16 113 95 152 184 29 68 31 79 31 193 l-1 121 26 -17 c111 -76 162 -105 226
-126 71 -24 82 -25 276 -21 393 8 605 67 726 203 51 56 155 236 183 314 9 25
34 83 56 130 65 136 81 208 76 330 -2 58 -9 118 -15 133 -13 34 0 47 46 47 43
0 182 78 247 138 64 59 125 170 136 247 l5 42 106 8 c152 10 201 42 187 124
-13 75 -21 78 -107 35 -72 -35 -79 -37 -116 -26 -53 16 -84 42 -110 94 -13 23
-36 59 -51 78 -27 31 -31 33 -55 22 -24 -11 -26 -17 -26 -71 0 -68 30 -158 67
-198 21 -22 24 -32 19 -67 -10 -65 -51 -142 -108 -202 -62 -65 -105 -89 -246
-135 -109 -35 -134 -55 -107 -83 25 -25 47 -160 40 -244 -13 -161 -179 -546
-277 -642 -119 -117 -325 -184 -628 -205 -234 -16 -441 66 -628 249 l-102 100
-22 -21 -21 -21 46 -77 c37 -63 47 -91 58 -162 20 -137 -12 -275 -75 -317 -26
-16 -118 -32 -234 -40 -80 -5 -93 -17 -96 -92 -2 -62 -35 -147 -81 -214 -52
-75 -155 -132 -300 -166 -138 -33 -384 -12 -453 38 -10 7 -52 50 -93 94 -65
70 -77 88 -82 127 -14 99 10 182 66 235 l23 22 30 -61 c31 -65 61 -94 88 -83
25 10 20 66 -14 146 -16 38 -30 76 -30 84 0 8 -25 75 -56 150 -106 261 -116
317 -103 580 7 160 13 198 38 282 16 53 32 115 36 137 12 76 167 375 194 375
10 0 71 60 71 70 0 18 -68 29 -106 17 -28 -9 -45 -24 -71 -64 -18 -29 -36 -53
-38 -53 -2 0 -16 38 -31 85 -24 77 -25 91 -16 140 19 93 86 213 141 252 16 11
25 9 59 -10 166 -92 199 -109 226 -114 17 -4 54 -17 81 -30 28 -12 59 -23 71
-23 11 0 46 -14 77 -31 61 -33 110 -36 115 -7 6 29 -85 84 -217 133 -315 117
-472 245 -537 437 -23 67 -24 83 -24 342 0 426 23 613 88 726 11 19 27 60 37
90 23 74 93 228 121 265 12 17 31 48 43 70 12 22 33 58 46 80 27 43 32 75 13
75 -21 0 -107 -61 -113 -81 -4 -10 -10 -19 -15 -19 -24 0 -128 121 -159 184
-55 115 -64 182 -57 411 5 177 9 209 32 280 14 43 29 84 34 91 6 6 15 46 21
88 11 79 4 150 -23 244 -11 37 -10 47 5 75 18 32 79 79 152 115 81 40 219 93
278 107 129 30 310 9 472 -56 87 -35 225 -51 225 -26 0 21 -54 53 -115 68 -27
6 -62 18 -76 25 -54 27 -254 65 -369 71 -100 4 -123 2 -174 -16 -33 -12 -66
-21 -74 -21 -13 0 -69 -24 -197 -86 -50 -24 -94 -2 -151 76 -66 91 -98 164
-97 225 0 62 25 119 99 233 32 48 69 104 82 125 41 62 197 184 309 241 18 9
39 29 46 44 18 37 17 87 -3 86 -15 -1 -199 -130 -299 -210 -31 -23 -57 -42
-58 -40 -2 2 -15 43 -30 92 -32 110 -33 206 -4 317 21 79 27 93 70 160 33 53
142 112 281 152 61 18 88 18 178 -1z"/>
<path d="M7728 10934 c-12 -11 26 -66 61 -88 58 -37 91 -89 117 -184 38 -137
30 -222 -28 -288 -36 -41 -89 -69 -214 -114 l-92 -32 -73 62 c-63 53 -75 59
-85 46 -17 -24 -5 -67 31 -106 41 -45 75 -95 75 -110 0 -7 18 -50 40 -97 34
-73 42 -84 62 -81 22 3 23 7 22 74 -1 44 -8 82 -18 103 -10 18 -16 35 -13 37
2 3 35 7 73 10 105 9 200 48 252 102 l43 46 104 -3 c129 -3 187 17 210 73 20
48 20 90 0 82 -59 -22 -160 -45 -213 -49 l-64 -3 5 25 c3 14 2 80 -2 146 -7
109 -11 125 -39 175 -30 53 -83 101 -162 147 -38 22 -84 36 -92 27z"/>
<path d="M6835 10346 c-18 -13 -16 -17 22 -87 23 -41 44 -96 48 -122 l7 -47
-78 3 c-95 3 -147 -14 -142 -47 3 -20 8 -21 98 -18 116 3 272 -12 348 -34 146
-42 255 -141 339 -309 20 -38 45 -83 56 -98 11 -16 27 -48 36 -72 24 -64 87
-151 168 -230 39 -38 78 -84 86 -101 9 -17 22 -35 29 -41 9 -8 13 -44 13 -130
-1 -131 -9 -157 -94 -278 -39 -56 -39 -56 -24 -93 8 -20 23 -46 33 -57 51 -58
64 -129 36 -210 -39 -118 -158 -187 -347 -201 l-85 -7 -47 71 c-67 101 -182
169 -216 128 -17 -20 3 -49 76 -112 85 -74 107 -129 109 -271 l2 -113 -60 0
c-38 0 -72 -7 -96 -19 -49 -25 -117 -97 -136 -142 l-15 -37 -88 34 c-170 64
-325 38 -421 -71 -74 -84 -86 -212 -17 -185 28 11 83 70 103 111 9 18 37 47
60 64 40 27 51 30 120 30 79 0 140 -22 171 -59 8 -9 21 -16 31 -16 10 0 20 -7
24 -15 3 -8 14 -15 24 -15 22 0 93 72 116 117 23 47 82 100 131 119 41 15 47
15 120 -5 103 -29 141 -50 207 -115 67 -66 115 -144 150 -247 25 -71 26 -80
18 -180 -5 -57 -12 -117 -16 -134 -9 -49 -44 -136 -64 -166 -11 -15 -21 -37
-22 -50 -3 -20 3 -25 36 -33 36 -10 40 -8 67 22 16 17 31 44 34 59 3 16 13 52
21 81 8 29 18 93 21 142 5 70 9 91 22 94 82 25 214 43 255 35 114 -21 254 -76
300 -118 38 -33 73 -52 89 -45 21 8 60 76 82 143 36 111 173 211 288 211 43 0
127 27 127 40 0 21 -65 29 -155 20 -101 -10 -180 -37 -233 -77 -49 -37 -109
-118 -129 -173 l-17 -48 -46 22 c-168 83 -377 117 -510 81 -30 -8 -57 -15 -60
-15 -3 0 -5 24 -5 53 0 50 -8 72 -61 166 -94 169 -220 271 -376 305 -25 6 -26
9 -18 32 6 14 10 67 10 119 l0 93 83 -5 c146 -9 264 33 375 134 66 60 92 127
92 239 0 88 -15 128 -71 187 l-38 39 30 30 c78 78 125 250 100 361 l-9 37 64
0 c61 0 142 9 268 31 78 14 146 49 185 96 45 54 48 78 21 131 l-24 44 -51 -56
c-63 -68 -160 -116 -287 -142 l-86 -18 -95 47 c-52 25 -118 68 -147 94 -54 49
-163 207 -240 348 -78 144 -129 211 -215 281 -54 44 -158 94 -197 94 -12 0
-47 5 -78 12 -55 11 -56 11 -52 44 5 43 -51 147 -108 198 -45 40 -49 42 -75
22z"/>
<path d="M8464 10293 c-24 -37 -22 -106 5 -167 15 -36 21 -71 22 -144 2 -101
-3 -123 -64 -267 -22 -52 -24 -63 -13 -80 7 -11 22 -22 32 -24 38 -7 151 -81
209 -138 33 -32 93 -102 133 -156 159 -210 230 -387 253 -625 10 -99 9 -116
-15 -230 -14 -68 -34 -143 -45 -166 -42 -96 -179 -273 -267 -347 -23 -19 -104
-65 -180 -104 -109 -55 -139 -74 -139 -90 0 -18 6 -20 63 -19 128 2 300 117
446 296 l38 48 92 -48 c71 -38 95 -56 108 -83 29 -57 112 -154 136 -157 34 -5
37 21 12 101 -16 50 -33 81 -56 103 -47 45 -153 114 -175 114 -10 0 -21 5 -24
10 -3 6 -15 10 -26 10 -18 0 -18 2 4 38 30 49 67 136 67 159 0 10 9 44 20 76
17 47 20 82 20 204 0 82 -4 165 -9 185 -8 36 -8 37 71 112 83 80 102 92 188
125 37 14 58 17 71 11 10 -6 26 -7 36 -3 26 9 73 43 73 52 0 11 -103 31 -160
31 -75 0 -245 -94 -282 -157 -24 -40 -26 -39 -58 56 -11 35 -27 73 -34 85 -8
11 -16 32 -20 46 -3 14 -42 72 -85 130 l-80 105 34 35 c18 19 43 52 54 73 12
20 31 54 43 75 12 20 24 57 27 82 l6 45 84 7 c73 6 91 4 135 -14 28 -12 67
-33 86 -48 58 -45 75 -46 105 -6 22 29 24 38 15 55 -6 12 -23 23 -38 27 -15 3
-40 12 -57 19 -76 33 -175 55 -247 55 l-75 0 -7 61 c-3 34 -6 82 -6 106 0 67
-20 101 -108 186 -70 66 -87 77 -117 77 -19 0 -35 -4 -35 -10 0 -5 25 -36 56
-67 64 -64 87 -109 109 -212 23 -108 20 -207 -9 -285 -20 -55 -87 -169 -106
-181 -10 -6 -173 184 -203 235 -24 42 -27 52 -16 71 22 41 12 268 -17 399 -36
159 -46 174 -80 123z"/>
<path d="M6830 9605 c-17 -21 -1 -38 66 -71 29 -14 56 -33 59 -42 3 -10 27
-40 53 -68 94 -101 89 -85 48 -147 -67 -101 -83 -156 -90 -315 -8 -155 -2
-192 42 -249 l24 -33 -68 0 c-79 0 -182 -22 -222 -47 -88 -55 -181 -148 -182
-180 0 -49 38 -38 136 41 132 106 232 138 369 116 125 -20 195 -24 195 -11 0
22 -39 49 -81 56 -72 11 -76 13 -77 48 -1 17 -13 68 -28 112 -22 69 -25 91
-21 160 7 100 37 199 80 261 l33 48 91 2 c128 3 138 11 145 104 2 36 0 44 -12
42 -104 -24 -128 -24 -186 0 -33 13 -101 55 -153 92 -130 94 -191 117 -221 81z"/>
<path d="M7325 6827 c-14 -11 -16 -21 -11 -52 4 -21 15 -49 24 -64 25 -37 21
-135 -6 -193 -37 -76 -44 -79 -148 -66 -122 15 -152 8 -202 -47 -46 -51 -57
-56 -182 -85 -93 -22 -123 -40 -114 -65 15 -38 198 -3 345 66 81 38 88 40 128
29 23 -6 57 -20 74 -31 27 -16 51 -19 152 -19 66 0 175 5 242 9 134 10 187 28
257 85 23 18 50 36 62 40 11 3 38 24 59 46 35 36 39 45 40 92 0 33 -5 53 -13
55 -7 3 -47 -29 -90 -70 -42 -41 -97 -85 -121 -97 -68 -34 -226 -70 -336 -77
l-100 -6 26 29 c37 41 50 100 48 211 -2 107 -15 152 -56 196 -30 30 -50 34
-78 14z"/>
<path d="M8524 6676 c-6 -26 23 -165 62 -294 32 -104 39 -175 25 -230 -25 -91
-125 -160 -247 -170 -52 -4 -77 1 -155 28 -52 18 -100 41 -108 52 -7 10 -18
18 -23 18 -6 0 -38 -26 -72 -58 -112 -104 -272 -169 -477 -193 -137 -16 -229
-7 -354 35 -148 50 -213 86 -308 171 -47 41 -91 75 -100 75 -8 0 -21 -7 -28
-16 -11 -14 -9 -24 14 -68 30 -58 91 -104 209 -159 58 -27 68 -35 67 -57 0
-14 3 -52 6 -85 9 -90 -8 -115 -132 -193 -104 -64 -124 -89 -87 -110 24 -13
153 -3 197 15 28 12 47 32 73 75 l36 59 -4 109 -3 108 35 -15 c19 -9 60 -20
90 -25 72 -13 357 -3 440 16 140 31 361 118 395 157 17 18 19 18 44 1 55 -38
114 -52 218 -52 83 0 112 4 167 25 87 33 108 47 156 108 l40 50 0 96 c0 66 -7
127 -24 196 -13 55 -26 122 -30 148 -7 57 -36 127 -72 174 -30 39 -42 41 -50
9z"/>
<path d="M4320 2620 l0 -300 1715 2 1716 3 2 298 2 297 -1717 0 -1718 0 0
-300z"/>
<path d="M4450 1830 l0 -300 1540 0 1540 0 -2 298 -3 297 -1537 3 -1538 2 0
-300z"/>
<path d="M4640 1005 l0 -295 1340 0 1340 0 0 295 0 295 -1340 0 -1340 0 0
-295z"/>
</g>
</svg>
